<svg width="66" height="61" viewBox="0 0 66 61" fill="none" xmlns="http://www.w3.org/2000/svg">
<path d="M7.64941 26.0908C7.64941 25.4687 7.93887 24.882 8.43255 24.5035L31.4061 6.8905C32.1058 6.35405 33.0743 6.33909 33.7902 6.85368L58.3492 24.5054C58.8719 24.8812 59.1819 25.4856 59.1819 26.1295V58.013C59.1819 59.1176 58.2865 60.013 57.1819 60.013H9.64941C8.54484 60.013 7.64941 59.1176 7.64941 58.013V26.0908Z" fill="#9C9C9C"/>
<path d="M52.5325 5.15584V15.961L60.013 21.7792V5.15584H52.5325Z" fill="#9C9C9C"/>
<path d="M1 25.9351L32.5844 1L52.5325 15.961M65 25.9351L60.013 21.7792M52.5325 15.961V5.15584H60.013V21.7792M52.5325 15.961L60.013 21.7792" stroke="#9C9C9C" stroke-width="2" stroke-linecap="round" stroke-linejoin="round"/>
<rect x="24.2727" y="37.5713" width="16.6234" height="19.9481" rx="2" fill="#131313"/>
</svg>
