<svg width="66" height="52" viewBox="0 0 66 52" fill="none" xmlns="http://www.w3.org/2000/svg">
<path d="M36.5357 37.8828C36.5357 32.9122 40.5651 28.8828 45.5357 28.8828H56.9999C61.9705 28.8828 65.9999 32.9122 65.9999 37.8828V51.5938H36.5357V37.8828Z" fill="#9C9C9C"/>
<circle cx="51" cy="17" r="10" fill="#9C9C9C"/>
<mask id="path-3-inside-1_52_64" fill="white">
<path d="M0 38.4922C0 31.8648 5.37258 26.4922 12 26.4922H26.8928C33.5202 26.4922 38.8928 31.8648 38.8928 38.4922V51.5938H0V38.4922Z"/>
</mask>
<path d="M0 38.4922C0 31.8648 5.37258 26.4922 12 26.4922H26.8928C33.5202 26.4922 38.8928 31.8648 38.8928 38.4922V51.5938H0V38.4922Z" fill="#9C9C9C"/>
<path d="M0 26.4922H38.8928H0ZM38.8928 51.5938H0H38.8928ZM0 51.5938V26.4922V51.5938ZM26.8928 26.4922C34.6248 26.4922 40.8928 32.7602 40.8928 40.4922V51.5938H36.8928V38.4922C36.8928 31.8648 32.4156 26.4922 26.8928 26.4922Z" fill="#131313" mask="url(#path-3-inside-1_52_64)"/>
<circle cx="18.5" cy="12.5" r="12.5" fill="#9C9C9C"/>
</svg>
