<svg width="46" height="63" viewBox="0 0 46 63" fill="none" xmlns="http://www.w3.org/2000/svg">
<rect y="4" width="46" height="59" rx="4" fill="#9C9C9C"/>
<rect x="16" y="46" width="23" height="4" fill="#131313"/>
<rect x="16" y="22" width="23" height="4" fill="#131313"/>
<rect x="16" y="34" width="23" height="4" fill="#131313"/>
<circle cx="10" cy="48" r="2" fill="#131313"/>
<circle cx="10" cy="36" r="2" fill="#131313"/>
<circle cx="10" cy="24" r="2" fill="#131313"/>
<mask id="path-8-inside-1_52_50" fill="white">
<path d="M9 4H37V10C37 11.6569 35.6569 13 34 13H12C10.3431 13 9 11.6569 9 10V4Z"/>
</mask>
<path d="M9 4H37V10C37 11.6569 35.6569 13 34 13H12C10.3431 13 9 11.6569 9 10V4Z" fill="#9C9C9C"/>
<path d="M9 4H37H9ZM38 10C38 12.2091 36.2091 14 34 14H12C9.79086 14 8 12.2091 8 10H10C10 11.1046 10.8954 12 12 12H34C35.1046 12 36 11.1046 36 10H38ZM12 14C9.79086 14 8 12.2091 8 10V4H10V10C10 11.1046 10.8954 12 12 12V14ZM38 4V10C38 12.2091 36.2091 14 34 14V12C35.1046 12 36 11.1046 36 10V4H38Z" fill="#131313" mask="url(#path-8-inside-1_52_50)"/>
<circle cx="23.5" cy="5.5" r="5.5" fill="#9C9C9C"/>
<circle cx="23.5" cy="4.5" r="2.5" fill="#131313"/>
</svg>
