<svg width="57" height="65" viewBox="0 0 57 65" fill="none" xmlns="http://www.w3.org/2000/svg">
<path d="M45.0625 6.96875V2H11.9375V24.3594L24.3594 39.2656H32.6406L44.938 24.5087M45.0625 6.96875V24.3594L44.938 24.5087M45.0625 6.96875H55V21.875L38.7893 31.8872L44.938 24.5087" stroke="#9C9C9C" stroke-width="3" stroke-linejoin="round"/>
<path d="M11.9375 6.96875V2H45.0625V24.3594L32.6406 39.2656H24.3594L12.062 24.5087M11.9375 6.96875V24.3594L12.062 24.5087M11.9375 6.96875H2V21.875L18.2107 31.8872L12.062 24.5087" stroke="#9C9C9C" stroke-width="3" stroke-linejoin="round"/>
<path d="M11.9375 24.3594L24.3594 39.2656H32.6406L45.0625 24.3594V2H11.9375V24.3594Z" fill="#9C9C9C" stroke="#9C9C9C" stroke-width="3" stroke-linejoin="round"/>
<path d="M16.5938 52.1875H40.4062C41.787 52.1875 42.9062 53.3068 42.9062 54.6875V63.9375C42.9062 64.2136 42.6824 64.4375 42.4062 64.4375H14.5938C14.3176 64.4375 14.0938 64.2136 14.0938 63.9375V54.6875C14.0938 53.3068 15.213 52.1875 16.5938 52.1875Z" fill="#9C9C9C" stroke="#9C9C9C"/>
<rect x="24.0312" y="38.9375" width="8.9375" height="12.25" fill="#9C9C9C" stroke="#9C9C9C"/>
</svg>
