<svg width="91" height="96" viewBox="0 0 91 96" fill="none" xmlns="http://www.w3.org/2000/svg">
<path d="M38.2614 15.3824C41.1437 9.25751 49.8563 9.25751 52.7386 15.3824L57.0558 24.5568C58.191 26.9692 60.4534 28.6576 63.0892 29.0592L73.3503 30.623C79.7935 31.6049 82.4215 39.4667 77.864 44.1258L69.9657 52.2003C68.1869 54.0188 67.379 56.575 67.7895 59.0855L69.5877 70.0808C70.665 76.6689 63.6756 81.6009 57.8298 78.3776L49.3628 73.7091C46.9582 72.3833 44.0418 72.3833 41.6372 73.7091L33.1702 78.3776C27.3244 81.6009 20.335 76.6689 21.4123 70.0808L23.2105 59.0855C23.621 56.575 22.8131 54.0188 21.0343 52.2003L13.136 44.1258C8.5785 39.4666 11.2065 31.6049 17.6496 30.623L27.9108 29.0592C30.5466 28.6576 32.809 26.9692 33.9442 24.5568L38.2614 15.3824Z" fill="#9C9C9C"/>
<path d="M49.8572 46.3786L22.344 62.2077L18.4049 50.6557L49.8572 46.3786Z" fill="#131313"/>
</svg>
